# xmcd CD database file
#
# Track frame offsets:
#	150
#	25957
#	46910
#	72577
#	93102
#	115365
#	135572
#	156517
#	181302
#	204165
#
# Disc length: 3058 seconds
#
# Revision: 0
# Processed by: cddbd v1.5.1PL0 Copyright (c) Steve Scherf et al.
# Submitted via: CDex 1.51
#
DISCID=860bf00a
DTITLE=Various Artist - SOUNDPIA
DYEAR=1984
DGENRE=Jazz
TTITLE0=オーバーナイト・センセーション(ザ・スクエア)
TTITLE1=トゥナイト(マリーン)
TTITLE2=ギブ・ミー・ユア・ハート・トゥナイト(笠井紀美子)
TTITLE3=セイ・イット・アゲイン(伊東たけし)
TTITLE4=オーティス(日野テルマサ)
TTITLE5=ユー・テイク・マイ・ブレス・アウェイ(笠井紀美子)
TTITLE6=ブルース・フォー・リー(伊東たけし)
TTITLE7=ESP(マリーン)
TTITLE8=メイビー・アイム・ロング(ザ・スクエア)
TTITLE9=ナイト・エンジェル(日野テルマサ)
EXTD=YEAR: 1984
EXTT0=
EXTT1=
EXTT2=
EXTT3=
EXTT4=
EXTT5=
EXTT6=
EXTT7=
EXTT8=
EXTT9=
PLAYORDER=
